<svg xmlns="http://www.w3.org/2000/svg" version="1.1" xmlns:xlink="http://www.w3.org/1999/xlink" xmlns:svgjs="http://svgjs.dev/svgjs" width="1000" height="1000"><g clip-path="url(#SvgjsClipPath1169)"><rect width="1000" height="1000" fill="#8281fe"></rect><g transform="matrix(6.6115702479338845,0,0,6.6115702479338845,100,414.0495867768595)"><svg xmlns="http://www.w3.org/2000/svg" version="1.1" xmlns:xlink="http://www.w3.org/1999/xlink" xmlns:svgjs="http://svgjs.dev/svgjs" width="121" height="26"><svg width="121" height="26" viewBox="0 0 121 26" fill="none" xmlns="http://www.w3.org/2000/svg">
<path d="M1.34146 7.26829H0.560976V6.4878H1.34146V7.26829ZM1.34146 8.04878H0.560976V7.26829H1.34146V8.04878ZM1.34146 8.82927H0.560976V8.04878H1.34146V8.82927ZM1.34146 9.60976H0.560976V8.82927H1.34146V9.60976ZM1.34146 10.3902H0.560976V9.60976H1.34146V10.3902ZM1.34146 11.1707H0.560976V10.3902H1.34146V11.1707ZM1.34146 11.9512H0.560976V11.1707H1.34146V11.9512ZM1.34146 12.7317H0.560976V11.9512H1.34146V12.7317ZM1.34146 13.5122H0.560976V12.7317H1.34146V13.5122ZM1.34146 14.2927H0.560976V13.5122H1.34146V14.2927ZM1.34146 15.0732H0.560976V14.2927H1.34146V15.0732ZM1.34146 15.8537H0.560976V15.0732H1.34146V15.8537ZM1.34146 16.6341H0.560976V15.8537H1.34146V16.6341ZM1.34146 17.4146H0.560976V16.6341H1.34146V17.4146ZM1.34146 18.1951H0.560976V17.4146H1.34146V18.1951ZM2.12195 18.1951H1.34146V17.4146H2.12195V18.1951ZM2.12195 17.4146H1.34146V16.6341H2.12195V17.4146ZM2.12195 16.6341H1.34146V15.8537H2.12195V16.6341ZM2.12195 15.8537H1.34146V15.0732H2.12195V15.8537ZM2.12195 15.0732H1.34146V14.2927H2.12195V15.0732ZM2.12195 14.2927H1.34146V13.5122H2.12195V14.2927ZM2.12195 13.5122H1.34146V12.7317H2.12195V13.5122ZM2.90244 12.7317H2.12195V11.9512H2.90244V12.7317ZM2.90244 11.9512H2.12195V11.1707H2.90244V11.9512ZM2.90244 11.1707H2.12195V10.3902H2.90244V11.1707ZM2.90244 10.3902H2.12195V9.60976H2.90244V10.3902ZM2.90244 9.60976H2.12195V8.82927H2.90244V9.60976ZM2.90244 8.82927H2.12195V8.04878H2.90244V8.82927ZM2.90244 8.04878H2.12195V7.26829H2.90244V8.04878ZM2.90244 7.26829H2.12195V6.4878H2.90244V7.26829ZM3.68293 7.26829H2.90244V6.4878H3.68293V7.26829ZM4.46341 7.26829H3.68293V6.4878H4.46341V7.26829ZM4.46341 8.04878H3.68293V7.26829H4.46341V8.04878ZM4.46341 8.82927H3.68293V8.04878H4.46341V8.82927ZM4.46341 9.60976H3.68293V8.82927H4.46341V9.60976ZM4.46341 10.3902H3.68293V9.60976H4.46341V10.3902ZM4.46341 11.1707H3.68293V10.3902H4.46341V11.1707ZM4.46341 11.9512H3.68293V11.1707H4.46341V11.9512ZM4.46341 12.7317H3.68293V11.9512H4.46341V12.7317ZM3.68293 12.7317H2.90244V11.9512H3.68293V12.7317ZM3.68293 13.5122H2.90244V12.7317H3.68293V13.5122ZM3.68293 11.9512H2.90244V11.1707H3.68293V11.9512ZM3.68293 11.1707H2.90244V10.3902H3.68293V11.1707ZM3.68293 10.3902H2.90244V9.60976H3.68293V10.3902ZM3.68293 9.60976H2.90244V8.82927H3.68293V9.60976ZM3.68293 8.82927H2.90244V8.04878H3.68293V8.82927ZM3.68293 8.04878H2.90244V7.26829H3.68293V8.04878ZM2.12195 7.26829H1.34146V6.4878H2.12195V7.26829ZM2.12195 8.04878H1.34146V7.26829H2.12195V8.04878ZM2.12195 8.82927H1.34146V8.04878H2.12195V8.82927ZM2.12195 9.60976H1.34146V8.82927H2.12195V9.60976ZM2.12195 10.3902H1.34146V9.60976H2.12195V10.3902ZM2.12195 11.1707H1.34146V10.3902H2.12195V11.1707ZM2.12195 11.9512H1.34146V11.1707H2.12195V11.9512ZM2.12195 12.7317H1.34146V11.9512H2.12195V12.7317ZM1.34146 20.5366H0.560976V19.7561H1.34146V20.5366ZM1.34146 19.7561H0.560976V18.9756H1.34146V19.7561ZM1.34146 18.9756H0.560976V18.1951H1.34146V18.9756ZM3.68293 22.0976H2.90244V21.3171H3.68293V22.0976ZM3.68293 20.5366H2.90244V19.7561H3.68293V20.5366ZM3.68293 19.7561H2.90244V18.9756H3.68293V19.7561ZM3.68293 18.9756H2.90244V18.1951H3.68293V18.9756ZM3.68293 18.1951H2.90244V17.4146H3.68293V18.1951ZM3.68293 17.4146H2.90244V16.6341H3.68293V17.4146ZM3.68293 16.6341H2.90244V15.8537H3.68293V16.6341ZM3.68293 15.8537H2.90244V15.0732H3.68293V15.8537ZM4.46341 15.0732H3.68293V14.2927H4.46341V15.0732ZM4.46341 14.2927H3.68293V13.5122H4.46341V14.2927ZM4.46341 13.5122H3.68293V12.7317H4.46341V13.5122ZM4.46341 15.8537H3.68293V15.0732H4.46341V15.8537ZM4.46341 16.6341H3.68293V15.8537H4.46341V16.6341ZM4.46341 17.4146H3.68293V16.6341H4.46341V17.4146ZM4.46341 18.1951H3.68293V17.4146H4.46341V18.1951ZM4.46341 18.9756H3.68293V18.1951H4.46341V18.9756ZM4.46341 19.7561H3.68293V18.9756H4.46341V19.7561ZM4.46341 20.5366H3.68293V19.7561H4.46341V20.5366ZM4.46341 21.3171H3.68293V20.5366H4.46341V21.3171ZM4.46341 22.0976H3.68293V21.3171H4.46341V22.0976ZM4.46341 22.878H3.68293V22.0976H4.46341V22.878ZM3.68293 21.3171H2.90244V20.5366H3.68293V21.3171ZM4.46341 23.6585H3.68293V22.878H4.46341V23.6585ZM4.46341 24.439H3.68293V23.6585H4.46341V24.439ZM2.90244 22.0976H2.12195V21.3171H2.90244V22.0976ZM2.90244 21.3171H2.12195V20.5366H2.90244V21.3171ZM2.90244 20.5366H2.12195V19.7561H2.90244V20.5366ZM2.12195 19.7561H1.34146V18.9756H2.12195V19.7561ZM2.12195 18.9756H1.34146V18.1951H2.12195V18.9756ZM2.12195 20.5366H1.34146V19.7561H2.12195V20.5366ZM2.12195 21.3171H1.34146V20.5366H2.12195V21.3171ZM2.90244 19.7561H2.12195V18.9756H2.90244V19.7561ZM2.90244 18.9756H2.12195V18.1951H2.90244V18.9756ZM2.90244 18.1951H2.12195V17.4146H2.90244V18.1951ZM2.90244 17.4146H2.12195V16.6341H2.90244V17.4146ZM2.90244 16.6341H2.12195V15.8537H2.90244V16.6341ZM2.90244 15.8537H2.12195V15.0732H2.90244V15.8537ZM2.90244 15.0732H2.12195V14.2927H2.90244V15.0732ZM2.90244 14.2927H2.12195V13.5122H2.90244V14.2927ZM2.90244 13.5122H2.12195V12.7317H2.90244V13.5122ZM3.68293 14.2927H2.90244V13.5122H3.68293V14.2927ZM3.68293 15.0732H2.90244V14.2927H3.68293V15.0732ZM9.14634 24.439H8.36585V23.6585H9.14634V24.439ZM9.14634 23.6585H8.36585V22.878H9.14634V23.6585ZM9.14634 22.878H8.36585V22.0976H9.14634V22.878ZM9.14634 22.0976H8.36585V21.3171H9.14634V22.0976ZM9.92683 22.878H9.14634V22.0976H9.92683V22.878ZM9.92683 23.6585H9.14634V22.878H9.92683V23.6585ZM6.02439 26H5.2439V25.2195H6.02439V26ZM6.80488 26H6.02439V25.2195H6.80488V26ZM7.58537 26H6.80488V25.2195H7.58537V26ZM8.36585 25.2195H7.58537V24.439H8.36585V25.2195ZM7.58537 25.2195H6.80488V24.439H7.58537V25.2195ZM6.80488 25.2195H6.02439V24.439H6.80488V25.2195ZM6.02439 25.2195H5.2439V24.439H6.02439V25.2195ZM5.2439 25.2195H4.46341V24.439H5.2439V25.2195ZM5.2439 24.439H4.46341V23.6585H5.2439V24.439ZM5.2439 23.6585H4.46341V22.878H5.2439V23.6585ZM6.02439 24.439H5.2439V23.6585H6.02439V24.439ZM6.80488 24.439H6.02439V23.6585H6.80488V24.439ZM7.58537 24.439H6.80488V23.6585H7.58537V24.439ZM8.36585 24.439H7.58537V23.6585H8.36585V24.439ZM8.36585 23.6585H7.58537V22.878H8.36585V23.6585ZM7.58537 23.6585H6.80488V22.878H7.58537V23.6585ZM6.80488 23.6585H6.02439V22.878H6.80488V23.6585ZM6.02439 23.6585H5.2439V22.878H6.02439V23.6585ZM5.2439 22.878H4.46341V22.0976H5.2439V22.878ZM6.02439 22.878H5.2439V22.0976H6.02439V22.878ZM8.36585 22.878H7.58537V22.0976H8.36585V22.878ZM7.58537 22.878H6.80488V22.0976H7.58537V22.878ZM8.36585 22.0976H7.58537V21.3171H8.36585V22.0976ZM5.2439 22.0976H4.46341V21.3171H5.2439V22.0976ZM3.68293 23.6585H2.90244V22.878H3.68293V23.6585ZM3.68293 22.878H2.90244V22.0976H3.68293V22.878ZM2.90244 22.878H2.12195V22.0976H2.90244V22.878ZM2.12195 22.0976H1.34146V21.3171H2.12195V22.0976ZM1.34146 21.3171H0.560976V20.5366H1.34146V21.3171ZM5.2439 21.3171H4.46341V20.5366H5.2439V21.3171ZM6.02439 22.0976H5.2439V21.3171H6.02439V22.0976ZM6.80488 22.878H6.02439V22.0976H6.80488V22.878ZM7.58537 22.0976H6.80488V21.3171H7.58537V22.0976ZM8.36585 21.3171H7.58537V20.5366H8.36585V21.3171ZM6.80488 22.0976H6.02439V21.3171H6.80488V22.0976ZM6.02439 21.3171H5.2439V20.5366H6.02439V21.3171ZM5.2439 20.5366H4.46341V19.7561H5.2439V20.5366ZM7.58537 21.3171H6.80488V20.5366H7.58537V21.3171ZM8.36585 20.5366H7.58537V19.7561H8.36585V20.5366ZM9.14634 7.26829H8.36585V6.4878H9.14634V7.26829ZM9.14634 8.04878H8.36585V7.26829H9.14634V8.04878ZM9.14634 8.82927H8.36585V8.04878H9.14634V8.82927ZM9.14634 9.60976H8.36585V8.82927H9.14634V9.60976ZM9.14634 10.3902H8.36585V9.60976H9.14634V10.3902ZM9.14634 11.9512H8.36585V11.1707H9.14634V11.9512ZM9.14634 12.7317H8.36585V11.9512H9.14634V12.7317ZM9.14634 13.5122H8.36585V12.7317H9.14634V13.5122ZM9.14634 14.2927H8.36585V13.5122H9.14634V14.2927ZM9.14634 15.0732H8.36585V14.2927H9.14634V15.0732ZM9.14634 15.8537H8.36585V15.0732H9.14634V15.8537ZM9.14634 16.6341H8.36585V15.8537H9.14634V16.6341ZM9.14634 17.4146H8.36585V16.6341H9.14634V17.4146ZM9.14634 18.1951H8.36585V17.4146H9.14634V18.1951ZM9.92683 18.1951H9.14634V17.4146H9.92683V18.1951ZM9.92683 17.4146H9.14634V16.6341H9.92683V17.4146ZM9.92683 16.6341H9.14634V15.8537H9.92683V16.6341ZM9.92683 15.0732H9.14634V14.2927H9.92683V15.0732ZM9.92683 14.2927H9.14634V13.5122H9.92683V14.2927ZM9.92683 13.5122H9.14634V12.7317H9.92683V13.5122ZM10.7073 11.9512H9.92683V11.1707H10.7073V11.9512ZM10.7073 11.1707H9.92683V10.3902H10.7073V11.1707ZM10.7073 10.3902H9.92683V9.60976H10.7073V10.3902ZM10.7073 9.60976H9.92683V8.82927H10.7073V9.60976ZM10.7073 8.82927H9.92683V8.04878H10.7073V8.82927ZM10.7073 8.04878H9.92683V7.26829H10.7073V8.04878ZM10.7073 7.26829H9.92683V6.4878H10.7073V7.26829ZM12.2683 7.26829H11.4878V6.4878H12.2683V7.26829ZM12.2683 8.04878H11.4878V7.26829H12.2683V8.04878ZM12.2683 8.82927H11.4878V8.04878H12.2683V8.82927ZM12.2683 10.3902H11.4878V9.60976H12.2683V10.3902ZM12.2683 11.1707H11.4878V10.3902H12.2683V11.1707ZM12.2683 12.7317H11.4878V11.9512H12.2683V12.7317ZM11.4878 12.7317H10.7073V11.9512H11.4878V12.7317ZM11.4878 13.5122H10.7073V12.7317H11.4878V13.5122ZM11.4878 11.9512H10.7073V11.1707H11.4878V11.9512ZM11.4878 11.1707H10.7073V10.3902H11.4878V11.1707ZM11.4878 10.3902H10.7073V9.60976H11.4878V10.3902ZM11.4878 9.60976H10.7073V8.82927H11.4878V9.60976ZM11.4878 8.82927H10.7073V8.04878H11.4878V8.82927ZM11.4878 8.04878H10.7073V7.26829H11.4878V8.04878ZM9.92683 7.26829H9.14634V6.4878H9.92683V7.26829ZM9.92683 8.82927H9.14634V8.04878H9.92683V8.82927ZM9.92683 9.60976H9.14634V8.82927H9.92683V9.60976ZM9.92683 10.3902H9.14634V9.60976H9.92683V10.3902ZM9.92683 11.1707H9.14634V10.3902H9.92683V11.1707ZM9.92683 11.9512H9.14634V11.1707H9.92683V11.9512ZM9.14634 20.5366H8.36585V19.7561H9.14634V20.5366ZM9.14634 18.9756H8.36585V18.1951H9.14634V18.9756ZM11.4878 22.0976H10.7073V21.3171H11.4878V22.0976ZM11.4878 20.5366H10.7073V19.7561H11.4878V20.5366ZM11.4878 19.7561H10.7073V18.9756H11.4878V19.7561ZM11.4878 18.9756H10.7073V18.1951H11.4878V18.9756ZM11.4878 18.1951H10.7073V17.4146H11.4878V18.1951ZM11.4878 17.4146H10.7073V16.6341H11.4878V17.4146ZM11.4878 16.6341H10.7073V15.8537H11.4878V16.6341ZM11.4878 15.8537H10.7073V15.0732H11.4878V15.8537ZM12.2683 15.0732H11.4878V14.2927H12.2683V15.0732ZM12.2683 14.2927H11.4878V13.5122H12.2683V14.2927ZM12.2683 13.5122H11.4878V12.7317H12.2683V13.5122ZM12.2683 15.8537H11.4878V15.0732H12.2683V15.8537ZM12.2683 16.6341H11.4878V15.8537H12.2683V16.6341ZM12.2683 17.4146H11.4878V16.6341H12.2683V17.4146ZM12.2683 18.1951H11.4878V17.4146H12.2683V18.1951ZM12.2683 18.9756H11.4878V18.1951H12.2683V18.9756ZM12.2683 19.7561H11.4878V18.9756H12.2683V19.7561ZM12.2683 20.5366H11.4878V19.7561H12.2683V20.5366ZM12.2683 21.3171H11.4878V20.5366H12.2683V21.3171ZM12.2683 22.0976H11.4878V21.3171H12.2683V22.0976ZM12.2683 22.878H11.4878V22.0976H12.2683V22.878ZM11.4878 21.3171H10.7073V20.5366H11.4878V21.3171ZM12.2683 23.6585H11.4878V22.878H12.2683V23.6585ZM12.2683 24.439H11.4878V23.6585H12.2683V24.439ZM10.7073 22.0976H9.92683V21.3171H10.7073V22.0976ZM10.7073 21.3171H9.92683V20.5366H10.7073V21.3171ZM10.7073 20.5366H9.92683V19.7561H10.7073V20.5366ZM9.92683 19.7561H9.14634V18.9756H9.92683V19.7561ZM9.92683 18.9756H9.14634V18.1951H9.92683V18.9756ZM9.92683 20.5366H9.14634V19.7561H9.92683V20.5366ZM9.92683 21.3171H9.14634V20.5366H9.92683V21.3171ZM10.7073 19.7561H9.92683V18.9756H10.7073V19.7561ZM10.7073 18.9756H9.92683V18.1951H10.7073V18.9756ZM10.7073 16.6341H9.92683V15.8537H10.7073V16.6341ZM10.7073 15.8537H9.92683V15.0732H10.7073V15.8537ZM10.7073 15.0732H9.92683V14.2927H10.7073V15.0732ZM10.7073 14.2927H9.92683V13.5122H10.7073V14.2927ZM10.7073 13.5122H9.92683V12.7317H10.7073V13.5122ZM11.4878 14.2927H10.7073V13.5122H11.4878V14.2927ZM11.4878 15.0732H10.7073V14.2927H11.4878V15.0732ZM16.9512 7.26829H16.1707V6.4878H16.9512V7.26829ZM16.9512 8.04878H16.1707V7.26829H16.9512V8.04878ZM16.9512 8.82927H16.1707V8.04878H16.9512V8.82927ZM16.9512 9.60976H16.1707V8.82927H16.9512V9.60976ZM16.9512 10.3902H16.1707V9.60976H16.9512V10.3902ZM16.9512 11.1707H16.1707V10.3902H16.9512V11.1707ZM16.9512 11.9512H16.1707V11.1707H16.9512V11.9512ZM16.9512 12.7317H16.1707V11.9512H16.9512V12.7317ZM16.9512 13.5122H16.1707V12.7317H16.9512V13.5122ZM16.9512 14.2927H16.1707V13.5122H16.9512V14.2927ZM16.9512 15.0732H16.1707V14.2927H16.9512V15.0732ZM16.9512 15.8537H16.1707V15.0732H16.9512V15.8537ZM16.9512 16.6341H16.1707V15.8537H16.9512V16.6341ZM16.9512 17.4146H16.1707V16.6341H16.9512V17.4146ZM16.9512 18.1951H16.1707V17.4146H16.9512V18.1951ZM17.7317 18.1951H16.9512V17.4146H17.7317V18.1951ZM17.7317 17.4146H16.9512V16.6341H17.7317V17.4146ZM17.7317 16.6341H16.9512V15.8537H17.7317V16.6341ZM17.7317 15.8537H16.9512V15.0732H17.7317V15.8537ZM17.7317 15.0732H16.9512V14.2927H17.7317V15.0732ZM17.7317 14.2927H16.9512V13.5122H17.7317V14.2927ZM17.7317 13.5122H16.9512V12.7317H17.7317V13.5122ZM18.5122 12.7317H17.7317V11.9512H18.5122V12.7317ZM18.5122 11.9512H17.7317V11.1707H18.5122V11.9512ZM18.5122 11.1707H17.7317V10.3902H18.5122V11.1707ZM18.5122 10.3902H17.7317V9.60976H18.5122V10.3902ZM18.5122 9.60976H17.7317V8.82927H18.5122V9.60976ZM18.5122 8.82927H17.7317V8.04878H18.5122V8.82927ZM18.5122 8.04878H17.7317V7.26829H18.5122V8.04878ZM18.5122 7.26829H17.7317V6.4878H18.5122V7.26829ZM19.2927 7.26829H18.5122V6.4878H19.2927V7.26829ZM20.0732 7.26829H19.2927V6.4878H20.0732V7.26829ZM20.0732 8.04878H19.2927V7.26829H20.0732V8.04878ZM20.0732 8.82927H19.2927V8.04878H20.0732V8.82927ZM20.0732 9.60976H19.2927V8.82927H20.0732V9.60976ZM20.0732 10.3902H19.2927V9.60976H20.0732V10.3902ZM20.0732 11.1707H19.2927V10.3902H20.0732V11.1707ZM20.0732 11.9512H19.2927V11.1707H20.0732V11.9512ZM20.0732 12.7317H19.2927V11.9512H20.0732V12.7317ZM19.2927 12.7317H18.5122V11.9512H19.2927V12.7317ZM19.2927 13.5122H18.5122V12.7317H19.2927V13.5122ZM19.2927 11.9512H18.5122V11.1707H19.2927V11.9512ZM19.2927 11.1707H18.5122V10.3902H19.2927V11.1707ZM19.2927 10.3902H18.5122V9.60976H19.2927V10.3902ZM19.2927 9.60976H18.5122V8.82927H19.2927V9.60976ZM19.2927 8.82927H18.5122V8.04878H19.2927V8.82927ZM19.2927 8.04878H18.5122V7.26829H19.2927V8.04878ZM17.7317 7.26829H16.9512V6.4878H17.7317V7.26829ZM17.7317 8.04878H16.9512V7.26829H17.7317V8.04878ZM17.7317 8.82927H16.9512V8.04878H17.7317V8.82927ZM17.7317 9.60976H16.9512V8.82927H17.7317V9.60976ZM17.7317 10.3902H16.9512V9.60976H17.7317V10.3902ZM17.7317 11.1707H16.9512V10.3902H17.7317V11.1707ZM17.7317 11.9512H16.9512V11.1707H17.7317V11.9512ZM17.7317 12.7317H16.9512V11.9512H17.7317V12.7317ZM16.9512 24.439H16.1707V23.6585H16.9512V24.439ZM16.9512 23.6585H16.1707V22.878H16.9512V23.6585ZM16.9512 22.878H16.1707V22.0976H16.9512V22.878ZM16.9512 22.0976H16.1707V21.3171H16.9512V22.0976ZM16.9512 21.3171H16.1707V20.5366H16.9512V21.3171ZM16.9512 20.5366H16.1707V19.7561H16.9512V20.5366ZM16.9512 19.7561H16.1707V18.9756H16.9512V19.7561ZM16.9512 18.9756H16.1707V18.1951H16.9512V18.9756ZM19.2927 22.0976H18.5122V21.3171H19.2927V22.0976ZM19.2927 20.5366H18.5122V19.7561H19.2927V20.5366ZM19.2927 19.7561H18.5122V18.9756H19.2927V19.7561ZM19.2927 18.9756H18.5122V18.1951H19.2927V18.9756ZM19.2927 18.1951H18.5122V17.4146H19.2927V18.1951ZM19.2927 17.4146H18.5122V16.6341H19.2927V17.4146ZM19.2927 16.6341H18.5122V15.8537H19.2927V16.6341ZM19.2927 15.8537H18.5122V15.0732H19.2927V15.8537ZM20.0732 15.0732H19.2927V14.2927H20.0732V15.0732ZM20.0732 14.2927H19.2927V13.5122H20.0732V14.2927ZM20.0732 13.5122H19.2927V12.7317H20.0732V13.5122ZM20.0732 15.8537H19.2927V15.0732H20.0732V15.8537ZM20.0732 16.6341H19.2927V15.8537H20.0732V16.6341ZM20.0732 17.4146H19.2927V16.6341H20.0732V17.4146ZM20.0732 18.1951H19.2927V17.4146H20.0732V18.1951ZM20.0732 18.9756H19.2927V18.1951H20.0732V18.9756ZM20.0732 19.7561H19.2927V18.9756H20.0732V19.7561ZM20.0732 20.5366H19.2927V19.7561H20.0732V20.5366ZM20.0732 21.3171H19.2927V20.5366H20.0732V21.3171ZM19.2927 21.3171H18.5122V20.5366H19.2927V21.3171ZM18.5122 22.878H17.7317V22.0976H18.5122V22.878ZM18.5122 22.0976H17.7317V21.3171H18.5122V22.0976ZM18.5122 21.3171H17.7317V20.5366H18.5122V21.3171ZM18.5122 20.5366H17.7317V19.7561H18.5122V20.5366ZM17.7317 19.7561H16.9512V18.9756H17.7317V19.7561ZM17.7317 18.9756H16.9512V18.1951H17.7317V18.9756ZM17.7317 20.5366H16.9512V19.7561H17.7317V20.5366ZM17.7317 21.3171H16.9512V20.5366H17.7317V21.3171ZM17.7317 22.0976H16.9512V21.3171H17.7317V22.0976ZM17.7317 22.878H16.9512V22.0976H17.7317V22.878ZM17.7317 23.6585H16.9512V22.878H17.7317V23.6585ZM18.5122 19.7561H17.7317V18.9756H18.5122V19.7561ZM18.5122 18.9756H17.7317V18.1951H18.5122V18.9756ZM18.5122 18.1951H17.7317V17.4146H18.5122V18.1951ZM18.5122 17.4146H17.7317V16.6341H18.5122V17.4146ZM18.5122 16.6341H17.7317V15.8537H18.5122V16.6341ZM18.5122 15.8537H17.7317V15.0732H18.5122V15.8537ZM18.5122 15.0732H17.7317V14.2927H18.5122V15.0732ZM18.5122 14.2927H17.7317V13.5122H18.5122V14.2927ZM18.5122 13.5122H17.7317V12.7317H18.5122V13.5122ZM19.2927 14.2927H18.5122V13.5122H19.2927V14.2927ZM19.2927 15.0732H18.5122V14.2927H19.2927V15.0732ZM13.8293 26H13.0488V25.2195H13.8293V26ZM14.6098 26H13.8293V25.2195H14.6098V26ZM15.3902 26H14.6098V25.2195H15.3902V26ZM16.1707 25.2195H15.3902V24.439H16.1707V25.2195ZM15.3902 25.2195H14.6098V24.439H15.3902V25.2195ZM14.6098 25.2195H13.8293V24.439H14.6098V25.2195ZM13.8293 25.2195H13.0488V24.439H13.8293V25.2195ZM13.0488 25.2195H12.2683V24.439H13.0488V25.2195ZM13.0488 24.439H12.2683V23.6585H13.0488V24.439ZM13.0488 23.6585H12.2683V22.878H13.0488V23.6585ZM13.8293 24.439H13.0488V23.6585H13.8293V24.439ZM14.6098 24.439H13.8293V23.6585H14.6098V24.439ZM15.3902 24.439H14.6098V23.6585H15.3902V24.439ZM16.1707 24.439H15.3902V23.6585H16.1707V24.439ZM16.1707 23.6585H15.3902V22.878H16.1707V23.6585ZM15.3902 23.6585H14.6098V22.878H15.3902V23.6585ZM14.6098 23.6585H13.8293V22.878H14.6098V23.6585ZM13.8293 23.6585H13.0488V22.878H13.8293V23.6585ZM13.0488 22.878H12.2683V22.0976H13.0488V22.878ZM13.8293 22.878H13.0488V22.0976H13.8293V22.878ZM16.1707 22.878H15.3902V22.0976H16.1707V22.878ZM15.3902 22.878H14.6098V22.0976H15.3902V22.878ZM16.1707 22.0976H15.3902V21.3171H16.1707V22.0976ZM13.0488 22.0976H12.2683V21.3171H13.0488V22.0976ZM11.4878 23.6585H10.7073V22.878H11.4878V23.6585ZM11.4878 22.878H10.7073V22.0976H11.4878V22.878ZM10.7073 22.878H9.92683V22.0976H10.7073V22.878ZM9.92683 22.0976H9.14634V21.3171H9.92683V22.0976ZM9.14634 21.3171H8.36585V20.5366H9.14634V21.3171ZM13.0488 21.3171H12.2683V20.5366H13.0488V21.3171ZM13.8293 22.0976H13.0488V21.3171H13.8293V22.0976ZM14.6098 22.878H13.8293V22.0976H14.6098V22.878ZM15.3902 22.0976H14.6098V21.3171H15.3902V22.0976ZM16.1707 21.3171H15.3902V20.5366H16.1707V21.3171ZM14.6098 22.0976H13.8293V21.3171H14.6098V22.0976ZM13.8293 21.3171H13.0488V20.5366H13.8293V21.3171ZM13.0488 20.5366H12.2683V19.7561H13.0488V20.5366ZM15.3902 21.3171H14.6098V20.5366H15.3902V21.3171ZM16.1707 20.5366H15.3902V19.7561H16.1707V20.5366ZM9.14634 18.9756V19.7561H8.36585V18.9756H9.14634ZM10.7073 17.4146V18.1951H9.92683V17.4146H10.7073ZM10.7073 16.6341V17.4146H9.92683V16.6341H10.7073ZM9.92683 15.0732V15.8537H9.14634V15.0732H9.92683ZM11.4878 6.4878V7.26829H10.7073V6.4878H11.4878ZM9.92683 7.26829V8.04878H9.14634V7.26829H9.92683ZM12.2683 8.82927V9.60976H11.4878V8.82927H12.2683ZM9.14634 10.3902V11.1707H8.36585V10.3902H9.14634ZM12.2683 11.1707V11.9512H11.4878V11.1707H12.2683ZM10.7073 11.9512V12.7317H9.92683V11.9512H10.7073ZM9.92683 11.9512V12.7317H9.14634V11.9512H9.92683ZM25.5274 21.3171V20.5366H26.3079V21.3171H25.5274ZM24.747 21.3171V20.5366H25.5274V21.3171H24.747ZM23.9665 21.3171V20.5366H24.747V21.3171H23.9665ZM23.186 21.3171V20.5366H23.9665V21.3171H23.186ZM22.4055 21.3171V20.5366H23.186V21.3171H22.4055ZM22.4055 22.0976V21.3171H23.186V22.0976H22.4055ZM22.4055 22.878V22.0976H23.186V22.878H22.4055ZM23.186 22.878V22.0976H23.9665V22.878H23.186ZM23.9665 22.878V22.0976H24.747V22.878H23.9665ZM24.747 22.878V22.0976H25.5274V22.878H24.747ZM24.747 22.0976V21.3171H25.5274V22.0976H24.747ZM25.5274 22.0976V21.3171H26.3079V22.0976H25.5274ZM23.9665 22.0976V21.3171H24.747V22.0976H23.9665ZM23.186 22.0976V21.3171H23.9665V22.0976H23.186ZM25.5274 22.878V22.0976H26.3079V22.878H25.5274ZM26.3079 22.878V22.0976H27.0884V22.878H26.3079ZM26.3079 23.6585V22.878H27.0884V23.6585H26.3079ZM25.5274 23.6585V22.878H26.3079V23.6585H25.5274ZM24.747 23.6585V22.878H25.5274V23.6585H24.747ZM23.9665 23.6585V22.878H24.747V23.6585H23.9665ZM23.186 23.6585V22.878H23.9665V23.6585H23.186ZM23.186 24.439V23.6585H23.9665V24.439H23.186ZM23.9665 24.439V23.6585H24.747V24.439H23.9665ZM24.747 24.439V23.6585H25.5274V24.439H24.747ZM25.5274 24.439V23.6585H26.3079V24.439H25.5274ZM26.3079 24.439V23.6585H27.0884V24.439H26.3079ZM24.747 25.2195V24.439H25.5274V25.2195H24.747ZM23.9665 25.2195V24.439H24.747V25.2195H23.9665ZM25.5274 25.2195V24.439H26.3079V25.2195H25.5274ZM25.5274 26V25.2195H26.3079V26H25.5274ZM26.3079 26V25.2195H27.0884V26H26.3079ZM26.3079 25.2195V24.439H27.0884V25.2195H26.3079ZM27.0884 25.2195V24.439H27.8689V25.2195H27.0884ZM27.0884 26V25.2195H27.8689V26H27.0884ZM27.0884 24.439V23.6585H27.8689V24.439H27.0884ZM27.8689 24.439V23.6585H28.6494V24.439H27.8689ZM27.8689 23.6585V22.878H28.6494V23.6585H27.8689ZM27.0884 23.6585V22.878H27.8689V23.6585H27.0884ZM28.6494 23.6585V22.878H29.4299V23.6585H28.6494ZM28.6494 24.439V23.6585H29.4299V24.439H28.6494ZM28.6494 25.2195V24.439H29.4299V25.2195H28.6494ZM28.6494 26V25.2195H29.4299V26H28.6494ZM27.8689 26V25.2195H28.6494V26H27.8689ZM27.8689 25.2195V24.439H28.6494V25.2195H27.8689ZM29.4299 26V25.2195H30.2104V26H29.4299ZM30.9909 25.2195V24.439H31.7713V25.2195H30.9909ZM30.9909 24.439V23.6585H31.7713V24.439H30.9909ZM30.9909 23.6585V22.878H31.7713V23.6585H30.9909ZM30.2104 23.6585V22.878H30.9909V23.6585H30.2104ZM29.4299 23.6585V22.878H30.2104V23.6585H29.4299ZM29.4299 24.439V23.6585H30.2104V24.439H29.4299ZM29.4299 25.2195V24.439H30.2104V25.2195H29.4299ZM30.2104 25.2195V24.439H30.9909V25.2195H30.2104ZM30.2104 24.439V23.6585H30.9909V24.439H30.2104ZM31.7713 24.439V23.6585H32.5518V24.439H31.7713ZM31.7713 25.2195V24.439H32.5518V25.2195H31.7713ZM32.5518 25.2195V24.439H33.3323V25.2195H32.5518ZM32.5518 24.439V23.6585H33.3323V24.439H32.5518ZM33.3323 24.439V23.6585H34.1128V24.439H33.3323ZM33.3323 23.6585V22.878H34.1128V23.6585H33.3323ZM33.3323 22.878V22.0976H34.1128V22.878H33.3323ZM32.5518 22.878V22.0976H33.3323V22.878H32.5518ZM32.5518 23.6585V22.878H33.3323V23.6585H32.5518ZM31.7713 23.6585V22.878H32.5518V23.6585H31.7713ZM31.7713 22.878V22.0976H32.5518V22.878H31.7713ZM30.9909 22.878V22.0976H31.7713V22.878H30.9909ZM34.1128 22.878V22.0976H34.8933V22.878H34.1128ZM34.1128 22.0976V21.3171H34.8933V22.0976H34.1128ZM34.1128 21.3171V20.5366H34.8933V21.3171H34.1128ZM34.1128 20.5366V19.7561H34.8933V20.5366H34.1128ZM34.1128 19.7561V18.9756H34.8933V19.7561H34.1128ZM34.1128 18.9756V18.1951H34.8933V18.9756H34.1128ZM34.1128 18.1951V17.4146H34.8933V18.1951H34.1128ZM34.1128 17.4146V16.6341H34.8933V17.4146H34.1128ZM34.1128 16.6341V15.8537H34.8933V16.6341H34.1128ZM34.1128 15.8537V15.0732H34.8933V15.8537H34.1128ZM33.3323 15.8537V15.0732H34.1128V15.8537H33.3323ZM33.3323 15.0732V14.2927H34.1128V15.0732H33.3323ZM34.1128 15.0732V14.2927H34.8933V15.0732H34.1128ZM32.5518 15.0732V14.2927H33.3323V15.0732H32.5518ZM31.7713 15.0732V14.2927H32.5518V15.0732H31.7713ZM30.9909 15.0732V14.2927H31.7713V15.0732H30.9909ZM30.2104 15.0732V14.2927H30.9909V15.0732H30.2104ZM30.9909 15.8537V15.0732H31.7713V15.8537H30.9909ZM30.9909 16.6341V15.8537H31.7713V16.6341H30.9909ZM30.9909 17.4146V16.6341H31.7713V17.4146H30.9909ZM30.9909 18.1951V17.4146H31.7713V18.1951H30.9909ZM30.9909 18.9756V18.1951H31.7713V18.9756H30.9909ZM30.9909 19.7561V18.9756H31.7713V19.7561H30.9909ZM30.9909 20.5366V19.7561H31.7713V20.5366H30.9909ZM30.9909 21.3171V20.5366H31.7713V21.3171H30.9909ZM30.9909 22.0976V21.3171H31.7713V22.0976H30.9909ZM31.7713 22.0976V21.3171H32.5518V22.0976H31.7713ZM32.5518 22.0976V21.3171H33.3323V22.0976H32.5518ZM33.3323 22.0976V21.3171H34.1128V22.0976H33.3323ZM33.3323 21.3171V20.5366H34.1128V21.3171H33.3323ZM33.3323 20.5366V19.7561H34.1128V20.5366H33.3323ZM33.3323 19.7561V18.9756H34.1128V19.7561H33.3323ZM33.3323 18.9756V18.1951H34.1128V18.9756H33.3323ZM33.3323 18.1951V17.4146H34.1128V18.1951H33.3323ZM33.3323 17.4146V16.6341H34.1128V17.4146H33.3323ZM33.3323 16.6341V15.8537H34.1128V16.6341H33.3323ZM32.5518 15.8537V15.0732H33.3323V15.8537H32.5518ZM31.7713 15.8537V15.0732H32.5518V15.8537H31.7713ZM31.7713 16.6341V15.8537H32.5518V16.6341H31.7713ZM31.7713 17.4146V16.6341H32.5518V17.4146H31.7713ZM31.7713 18.1951V17.4146H32.5518V18.1951H31.7713ZM31.7713 18.9756V18.1951H32.5518V18.9756H31.7713ZM32.5518 18.9756V18.1951H33.3323V18.9756H32.5518ZM32.5518 19.7561V18.9756H33.3323V19.7561H32.5518ZM32.5518 20.5366V19.7561H33.3323V20.5366H32.5518ZM32.5518 21.3171V20.5366H33.3323V21.3171H32.5518ZM31.7713 21.3171V20.5366H32.5518V21.3171H31.7713ZM31.7713 20.5366V19.7561H32.5518V20.5366H31.7713ZM31.7713 19.7561V18.9756H32.5518V19.7561H31.7713ZM32.5518 17.4146V16.6341H33.3323V17.4146H32.5518ZM32.5518 16.6341V15.8537H33.3323V16.6341H32.5518ZM32.5518 18.1951V17.4146H33.3323V18.1951H32.5518ZM25.5274 15.8537V15.0732H26.3079V15.8537H25.5274ZM24.747 15.8537V15.0732H25.5274V15.8537H24.747ZM23.9665 15.8537V15.0732H24.747V15.8537H23.9665ZM23.186 15.8537V15.0732H23.9665V15.8537H23.186ZM22.4055 15.8537V15.0732H23.186V15.8537H22.4055ZM22.4055 15.0732V14.2927H23.186V15.0732H22.4055ZM23.186 15.0732V14.2927H23.9665V15.0732H23.186ZM23.9665 15.0732V14.2927H24.747V15.0732H23.9665ZM24.747 15.0732V14.2927H25.5274V15.0732H24.747ZM25.5274 15.0732V14.2927H26.3079V15.0732H25.5274ZM26.3079 15.0732V14.2927H27.0884V15.0732H26.3079ZM26.3079 14.2927V13.5122H27.0884V14.2927H26.3079ZM25.5274 14.2927V13.5122H26.3079V14.2927H25.5274ZM24.747 14.2927V13.5122H25.5274V14.2927H24.747ZM23.9665 14.2927V13.5122H24.747V14.2927H23.9665ZM23.9665 13.5122V12.7317H24.747V13.5122H23.9665ZM23.186 13.5122V12.7317H23.9665V13.5122H23.186ZM23.186 14.2927V13.5122H23.9665V14.2927H23.186ZM23.9665 12.7317V11.9512H24.747V12.7317H23.9665ZM24.747 12.7317V11.9512H25.5274V12.7317H24.747ZM24.747 13.5122V12.7317H25.5274V13.5122H24.747ZM25.5274 13.5122V12.7317H26.3079V13.5122H25.5274ZM25.5274 12.7317V11.9512H26.3079V12.7317H25.5274ZM25.5274 11.9512V11.1707H26.3079V11.9512H25.5274ZM26.3079 11.9512V11.1707H27.0884V11.9512H26.3079ZM27.0884 11.9512V11.1707H27.8689V11.9512H27.0884ZM27.8689 11.9512V11.1707H28.6494V11.9512H27.8689ZM28.6494 11.9512V11.1707H29.4299V11.9512H28.6494ZM29.4299 11.9512V11.1707H30.2104V11.9512H29.4299ZM30.2104 11.9512V11.1707H30.9909V11.9512H30.2104ZM30.9909 11.9512V11.1707H31.7713V11.9512H30.9909ZM30.2104 12.7317V11.9512H30.9909V12.7317H30.2104ZM29.4299 12.7317V11.9512H30.2104V12.7317H29.4299ZM28.6494 12.7317V11.9512H29.4299V12.7317H28.6494ZM27.8689 12.7317V11.9512H28.6494V12.7317H27.8689ZM27.0884 12.7317V11.9512H27.8689V12.7317H27.0884ZM26.3079 12.7317V11.9512H27.0884V12.7317H26.3079ZM26.3079 13.5122V12.7317H27.0884V13.5122H26.3079ZM27.0884 13.5122V12.7317H27.8689V13.5122H27.0884ZM27.8689 13.5122V12.7317H28.6494V13.5122H27.8689ZM28.6494 13.5122V12.7317H29.4299V13.5122H28.6494ZM29.4299 13.5122V12.7317H30.2104V13.5122H29.4299ZM30.2104 13.5122V12.7317H30.9909V13.5122H30.2104ZM30.9909 12.7317V11.9512H31.7713V12.7317H30.9909ZM31.7713 12.7317V11.9512H32.5518V12.7317H31.7713ZM32.5518 12.7317V11.9512H33.3323V12.7317H32.5518ZM32.5518 13.5122V12.7317H33.3323V13.5122H32.5518ZM33.3323 13.5122V12.7317H34.1128V13.5122H33.3323ZM33.3323 14.2927V13.5122H34.1128V14.2927H33.3323ZM32.5518 14.2927V13.5122H33.3323V14.2927H32.5518ZM31.7713 14.2927V13.5122H32.5518V14.2927H31.7713ZM30.9909 14.2927V13.5122H31.7713V14.2927H30.9909ZM30.2104 14.2927V13.5122H30.9909V14.2927H30.2104ZM29.4299 14.2927V13.5122H30.2104V14.2927H29.4299ZM28.6494 14.2927V13.5122H29.4299V14.2927H28.6494ZM27.8689 14.2927V13.5122H28.6494V14.2927H27.8689ZM27.0884 14.2927V13.5122H27.8689V14.2927H27.0884ZM30.9909 13.5122V12.7317H31.7713V13.5122H30.9909ZM31.7713 13.5122V12.7317H32.5518V13.5122H31.7713ZM23.186 20.5366V19.7561H23.9665V20.5366H23.186ZM23.9665 20.5366V19.7561H24.747V20.5366H23.9665ZM24.747 20.5366V19.7561H25.5274V20.5366H24.747ZM25.5274 20.5366V19.7561H26.3079V20.5366H25.5274ZM23.9665 19.7561V18.9756H24.747V19.7561H23.9665ZM24.747 19.7561V18.9756H25.5274V19.7561H24.747ZM26.3079 19.7561V18.9756H27.0884V19.7561H26.3079ZM27.0884 19.7561V18.9756H27.8689V19.7561H27.0884ZM27.8689 19.7561V18.9756H28.6494V19.7561H27.8689ZM28.6494 19.7561V18.9756H29.4299V19.7561H28.6494ZM29.4299 19.7561V18.9756H30.2104V19.7561H29.4299ZM30.2104 19.7561V18.9756H30.9909V19.7561H30.2104ZM25.5274 19.7561V18.9756H26.3079V19.7561H25.5274ZM23.186 19.7561V18.9756H23.9665V19.7561H23.186ZM23.9665 18.9756V18.1951H24.747V18.9756H23.9665ZM24.747 18.9756V18.1951H25.5274V18.9756H24.747ZM25.5274 18.9756V18.1951H26.3079V18.9756H25.5274ZM26.3079 18.9756V18.1951H27.0884V18.9756H26.3079ZM27.0884 18.9756V18.1951H27.8689V18.9756H27.0884ZM27.8689 18.9756V18.1951H28.6494V18.9756H27.8689ZM28.6494 18.9756V18.1951H29.4299V18.9756H28.6494ZM29.4299 18.9756V18.1951H30.2104V18.9756H29.4299ZM30.2104 18.9756V18.1951H30.9909V18.9756H30.2104ZM30.2104 18.1951V17.4146H30.9909V18.1951H30.2104ZM29.4299 18.1951V17.4146H30.2104V18.1951H29.4299ZM28.6494 18.1951V17.4146H29.4299V18.1951H28.6494ZM27.0884 18.1951V17.4146H27.8689V18.1951H27.0884ZM26.3079 18.1951V17.4146H27.0884V18.1951H26.3079ZM25.5274 18.1951V17.4146H26.3079V18.1951H25.5274ZM27.8689 18.1951V17.4146H28.6494V18.1951H27.8689ZM34.8933 22.878V23.6585H34.1128V22.878H34.8933ZM34.8933 23.6585V24.439H34.1128V23.6585H34.8933ZM34.8933 24.439V25.2195H34.1128V24.439H34.8933ZM34.8933 25.2195V26H34.1128V25.2195H34.8933ZM34.1128 25.2195V26H33.3323V25.2195H34.1128ZM34.1128 24.439V25.2195H33.3323V24.439H34.1128ZM33.3323 25.2195V26H32.5518V25.2195H33.3323ZM32.5518 25.2195V26H31.7713V25.2195H32.5518ZM31.7713 25.2195V26H30.9909V25.2195H31.7713ZM30.9909 22.0976V22.878H30.2104V22.0976H30.9909ZM25.5274 25.2195V26H24.747V25.2195H25.5274ZM27.0884 19.7561V20.5366H26.3079V19.7561H27.0884ZM38.8102 11.1707V11.9512H38.0297V11.1707H38.8102ZM39.5907 11.1707V11.9512H38.8102V11.1707H39.5907ZM40.3712 11.1707V11.9512H39.5907V11.1707H40.3712ZM40.3712 11.9512V12.7317H39.5907V11.9512H40.3712ZM41.1517 11.9512V12.7317H40.3712V11.9512H41.1517ZM41.9322 12.7317V13.5122H41.1517V12.7317H41.9322ZM41.9322 13.5122V14.2927H41.1517V13.5122H41.9322ZM41.9322 11.9512V12.7317H41.1517V11.9512H41.9322ZM41.9322 11.1707V11.9512H41.1517V11.1707H41.9322ZM41.1517 11.1707V11.9512H40.3712V11.1707H41.1517ZM39.5907 11.9512V12.7317H38.8102V11.9512H39.5907ZM39.5907 12.7317V13.5122H38.8102V12.7317H39.5907ZM38.8102 12.7317V13.5122H38.0297V12.7317H38.8102ZM38.8102 11.9512V12.7317H38.0297V11.9512H38.8102ZM38.8102 13.5122V14.2927H38.0297V13.5122H38.8102ZM38.8102 14.2927V15.0732H38.0297V14.2927H38.8102ZM38.8102 15.0732V15.8537H38.0297V15.0732H38.8102ZM39.5907 15.0732V15.8537H38.8102V15.0732H39.5907ZM40.3712 15.0732V15.8537H39.5907V15.0732H40.3712ZM41.1517 15.0732V15.8537H40.3712V15.0732H41.1517ZM41.9322 15.0732V15.8537H41.1517V15.0732H41.9322ZM41.9322 14.2927V15.0732H41.1517V14.2927H41.9322ZM41.1517 14.2927V15.0732H40.3712V14.2927H41.1517ZM41.1517 13.5122V14.2927H40.3712V13.5122H41.1517ZM41.1517 12.7317V13.5122H40.3712V12.7317H41.1517ZM40.3712 12.7317V13.5122H39.5907V12.7317H40.3712ZM40.3712 13.5122V14.2927H39.5907V13.5122H40.3712ZM39.5907 13.5122V14.2927H38.8102V13.5122H39.5907ZM39.5907 14.2927V15.0732H38.8102V14.2927H39.5907ZM40.3712 14.2927V15.0732H39.5907V14.2927H40.3712ZM39.5907 15.8537V16.6341H38.8102V15.8537H39.5907ZM40.3712 15.8537V16.6341H39.5907V15.8537H40.3712ZM40.3712 16.6341V17.4146H39.5907V16.6341H40.3712ZM41.1517 16.6341V17.4146H40.3712V16.6341H41.1517ZM41.1517 17.4146V18.1951H40.3712V17.4146H41.1517ZM41.9322 17.4146V18.1951H41.1517V17.4146H41.9322ZM41.9322 18.1951V18.9756H41.1517V18.1951H41.9322ZM41.9322 18.9756V19.7561H41.1517V18.9756H41.9322ZM41.9322 19.7561V20.5366H41.1517V19.7561H41.9322ZM41.1517 19.7561V20.5366H40.3712V19.7561H41.1517ZM41.1517 18.9756V19.7561H40.3712V18.9756H41.1517ZM40.3712 20.5366V21.3171H39.5907V20.5366H40.3712ZM40.3712 19.7561V20.5366H39.5907V19.7561H40.3712ZM40.3712 21.3171V22.0976H39.5907V21.3171H40.3712ZM39.5907 21.3171V22.0976H38.8102V21.3171H39.5907ZM39.5907 20.5366V21.3171H38.8102V20.5366H39.5907ZM38.8102 21.3171V22.0976H38.0297V21.3171H38.8102ZM40.3712 22.0976V22.878H39.5907V22.0976H40.3712ZM41.1517 22.0976V22.878H40.3712V22.0976H41.1517ZM41.9322 22.0976V22.878H41.1517V22.0976H41.9322ZM41.9322 21.3171V22.0976H41.1517V21.3171H41.9322ZM42.7127 21.3171V22.0976H41.9322V21.3171H42.7127ZM42.7127 20.5366V21.3171H41.9322V20.5366H42.7127ZM43.4931 20.5366V21.3171H42.7127V20.5366H43.4931ZM43.4931 19.7561V20.5366H42.7127V19.7561H43.4931ZM44.2736 19.7561V20.5366H43.4931V19.7561H44.2736ZM45.0541 19.7561V20.5366H44.2736V19.7561H45.0541ZM45.8346 19.7561V20.5366H45.0541V19.7561H45.8346ZM45.8346 20.5366V21.3171H45.0541V20.5366H45.8346ZM46.6151 20.5366V21.3171H45.8346V20.5366H46.6151ZM46.6151 21.3171V22.0976H45.8346V21.3171H46.6151ZM47.3956 21.3171V22.0976H46.6151V21.3171H47.3956ZM47.3956 22.0976V22.878H46.6151V22.0976H47.3956ZM48.1761 22.0976V22.878H47.3956V22.0976H48.1761ZM48.1761 21.3171V22.0976H47.3956V21.3171H48.1761ZM48.9566 21.3171V22.0976H48.1761V21.3171H48.9566ZM49.737 21.3171V22.0976H48.9566V21.3171H49.737ZM50.5175 21.3171V22.0976H49.737V21.3171H50.5175ZM50.5175 22.0976V22.878H49.737V22.0976H50.5175ZM49.737 20.5366V21.3171H48.9566V20.5366H49.737ZM48.9566 20.5366V21.3171H48.1761V20.5366H48.9566ZM48.9566 19.7561V20.5366H48.1761V19.7561H48.9566ZM48.1761 19.7561V20.5366H47.3956V19.7561H48.1761ZM47.3956 19.7561V20.5366H46.6151V19.7561H47.3956ZM47.3956 18.9756V19.7561H46.6151V18.9756H47.3956ZM46.6151 19.7561V20.5366H45.8346V19.7561H46.6151ZM48.1761 20.5366V21.3171H47.3956V20.5366H48.1761ZM47.3956 20.5366V21.3171H46.6151V20.5366H47.3956ZM43.4931 18.1951V18.9756H42.7127V18.1951H43.4931ZM44.2736 18.1951V18.9756H43.4931V18.1951H44.2736ZM45.0541 18.1951V18.9756H44.2736V18.1951H45.0541ZM45.8346 18.1951V18.9756H45.0541V18.1951H45.8346ZM46.6151 18.1951V18.9756H45.8346V18.1951H46.6151ZM47.3956 18.1951V18.9756H46.6151V18.1951H47.3956ZM46.6151 18.9756V19.7561H45.8346V18.9756H46.6151ZM45.8346 18.9756V19.7561H45.0541V18.9756H45.8346ZM45.0541 18.9756V19.7561H44.2736V18.9756H45.0541ZM44.2736 18.9756V19.7561H43.4931V18.9756H44.2736ZM43.4931 18.9756V19.7561H42.7127V18.9756H43.4931ZM42.7127 18.9756V19.7561H41.9322V18.9756H42.7127ZM42.7127 18.1951V18.9756H41.9322V18.1951H42.7127ZM42.7127 19.7561V20.5366H41.9322V19.7561H42.7127ZM41.9322 20.5366V21.3171H41.1517V20.5366H41.9322ZM41.1517 21.3171V22.0976H40.3712V21.3171H41.1517ZM41.1517 20.5366V21.3171H40.3712V20.5366H41.1517ZM48.1761 18.9756V19.7561H47.3956V18.9756H48.1761ZM48.1761 17.4146V18.1951H47.3956V17.4146H48.1761ZM48.1761 16.6341V17.4146H47.3956V16.6341H48.1761ZM48.9566 16.6341V17.4146H48.1761V16.6341H48.9566ZM48.9566 15.8537V16.6341H48.1761V15.8537H48.9566ZM49.737 15.8537V16.6341H48.9566V15.8537H49.737ZM49.737 15.0732V15.8537H48.9566V15.0732H49.737ZM50.5175 15.0732V15.8537H49.737V15.0732H50.5175ZM50.5175 14.2927V15.0732H49.737V14.2927H50.5175ZM50.5175 13.5122V14.2927H49.737V13.5122H50.5175ZM50.5175 12.7317V13.5122H49.737V12.7317H50.5175ZM50.5175 11.9512V12.7317H49.737V11.9512H50.5175ZM50.5175 11.1707V11.9512H49.737V11.1707H50.5175ZM49.737 11.1707V11.9512H48.9566V11.1707H49.737ZM48.9566 11.1707V11.9512H48.1761V11.1707H48.9566ZM48.1761 11.1707V11.9512H47.3956V11.1707H48.1761ZM47.3956 11.1707V11.9512H46.6151V11.1707H47.3956ZM47.3956 11.9512V12.7317H46.6151V11.9512H47.3956ZM47.3956 12.7317V13.5122H46.6151V12.7317H47.3956ZM47.3956 13.5122V14.2927H46.6151V13.5122H47.3956ZM47.3956 14.2927V15.0732H46.6151V14.2927H47.3956ZM47.3956 15.0732V15.8537H46.6151V15.0732H47.3956ZM46.6151 15.0732V15.8537H45.8346V15.0732H46.6151ZM46.6151 15.8537V16.6341H45.8346V15.8537H46.6151ZM45.8346 15.8537V16.6341H45.0541V15.8537H45.8346ZM45.8346 16.6341V17.4146H45.0541V16.6341H45.8346ZM45.0541 16.6341V17.4146H44.2736V16.6341H45.0541ZM44.2736 16.6341V17.4146H43.4931V16.6341H44.2736ZM43.4931 15.8537V16.6341H42.7127V15.8537H43.4931ZM42.7127 15.8537V16.6341H41.9322V15.8537H42.7127ZM42.7127 15.0732V15.8537H41.9322V15.0732H42.7127ZM41.9322 15.8537V16.6341H41.1517V15.8537H41.9322ZM41.1517 15.8537V16.6341H40.3712V15.8537H41.1517ZM41.9322 16.6341V17.4146H41.1517V16.6341H41.9322ZM42.7127 16.6341V17.4146H41.9322V16.6341H42.7127ZM43.4931 16.6341V17.4146H42.7127V16.6341H43.4931ZM43.4931 17.4146V18.1951H42.7127V17.4146H43.4931ZM42.7127 17.4146V18.1951H41.9322V17.4146H42.7127ZM44.2736 17.4146V18.1951H43.4931V17.4146H44.2736ZM45.0541 17.4146V18.1951H44.2736V17.4146H45.0541ZM45.8346 17.4146V18.1951H45.0541V17.4146H45.8346ZM46.6151 17.4146V18.1951H45.8346V17.4146H46.6151ZM47.3956 17.4146V18.1951H46.6151V17.4146H47.3956ZM47.3956 16.6341V17.4146H46.6151V16.6341H47.3956ZM46.6151 16.6341V17.4146H45.8346V16.6341H46.6151ZM48.1761 11.9512V12.7317H47.3956V11.9512H48.1761ZM48.9566 11.9512V12.7317H48.1761V11.9512H48.9566ZM49.737 11.9512V12.7317H48.9566V11.9512H49.737ZM49.737 12.7317V13.5122H48.9566V12.7317H49.737ZM49.737 13.5122V14.2927H48.9566V13.5122H49.737ZM49.737 14.2927V15.0732H48.9566V14.2927H49.737ZM48.9566 14.2927V15.0732H48.1761V14.2927H48.9566ZM48.9566 13.5122V14.2927H48.1761V13.5122H48.9566ZM48.9566 12.7317V13.5122H48.1761V12.7317H48.9566ZM48.1761 12.7317V13.5122H47.3956V12.7317H48.1761ZM48.1761 13.5122V14.2927H47.3956V13.5122H48.1761ZM48.1761 14.2927V15.0732H47.3956V14.2927H48.1761ZM48.1761 15.0732V15.8537H47.3956V15.0732H48.1761ZM48.9566 15.0732V15.8537H48.1761V15.0732H48.9566ZM48.1761 15.8537V16.6341H47.3956V15.8537H48.1761ZM47.3956 15.8537V16.6341H46.6151V15.8537H47.3956ZM38.8102 22.0976V22.878H38.0297V22.0976H38.8102ZM39.5907 22.0976V22.878H38.8102V22.0976H39.5907ZM48.9566 22.0976V22.878H48.1761V22.0976H48.9566ZM49.737 22.0976V22.878H48.9566V22.0976H49.737ZM47.3956 22.878V23.6585H46.6151V22.878H47.3956ZM47.3956 23.6585V24.439H46.6151V23.6585H47.3956ZM47.3956 24.439V25.2195H46.6151V24.439H47.3956ZM47.3956 25.2195V26H46.6151V25.2195H47.3956ZM48.1761 25.2195V26H47.3956V25.2195H48.1761ZM48.9566 25.2195V26H48.1761V25.2195H48.9566ZM49.737 25.2195V26H48.9566V25.2195H49.737ZM50.5175 25.2195V26H49.737V25.2195H50.5175ZM50.5175 24.439V25.2195H49.737V24.439H50.5175ZM50.5175 23.6585V24.439H49.737V23.6585H50.5175ZM50.5175 22.878V23.6585H49.737V22.878H50.5175ZM49.737 22.878V23.6585H48.9566V22.878H49.737ZM48.9566 22.878V23.6585H48.1761V22.878H48.9566ZM48.1761 22.878V23.6585H47.3956V22.878H48.1761ZM48.1761 23.6585V24.439H47.3956V23.6585H48.1761ZM48.1761 24.439V25.2195H47.3956V24.439H48.1761ZM48.9566 24.439V25.2195H48.1761V24.439H48.9566ZM49.737 24.439V25.2195H48.9566V24.439H49.737ZM49.737 23.6585V24.439H48.9566V23.6585H49.737ZM48.9566 23.6585V24.439H48.1761V23.6585H48.9566ZM38.8102 22.878V23.6585H38.0297V22.878H38.8102ZM38.8102 23.6585V24.439H38.0297V23.6585H38.8102ZM38.8102 24.439V25.2195H38.0297V24.439H38.8102ZM39.5907 24.439V25.2195H38.8102V24.439H39.5907ZM39.5907 25.2195V26H38.8102V25.2195H39.5907ZM38.8102 25.2195V26H38.0297V25.2195H38.8102ZM40.3712 25.2195V26H39.5907V25.2195H40.3712ZM41.1517 25.2195V26H40.3712V25.2195H41.1517ZM41.9322 25.2195V26H41.1517V25.2195H41.9322ZM41.9322 24.439V25.2195H41.1517V24.439H41.9322ZM41.9322 23.6585V24.439H41.1517V23.6585H41.9322ZM41.9322 22.878V23.6585H41.1517V22.878H41.9322ZM41.1517 22.878V23.6585H40.3712V22.878H41.1517ZM41.1517 23.6585V24.439H40.3712V23.6585H41.1517ZM41.1517 24.439V25.2195H40.3712V24.439H41.1517ZM40.3712 24.439V25.2195H39.5907V24.439H40.3712ZM40.3712 23.6585V24.439H39.5907V23.6585H40.3712ZM40.3712 22.878V23.6585H39.5907V22.878H40.3712ZM39.5907 23.6585V24.439H38.8102V23.6585H39.5907ZM39.5907 22.878V23.6585H38.8102V22.878H39.5907ZM53.8218 0.799998H63.3978C64.9098 1.304 66.1938 2.24 67.2498 3.608C68.3298 4.952 68.8698 6.608 68.8698 8.576C68.8698 11.792 67.5978 14.156 65.0538 15.668L68.6898 26H63.6498L60.5898 16.82H58.6818V26H53.8218V0.799998ZM58.6818 5.12V12.788H61.7778C62.1858 12.692 62.6298 12.284 63.1098 11.564C63.6138 10.82 63.8658 9.956 63.8658 8.972C63.8658 7.988 63.6498 7.124 63.2178 6.38C62.8098 5.636 62.4018 5.216 61.9938 5.12H58.6818ZM71.2902 26V7.604H76.0422V26H71.2902ZM71.2902 0.799998H76.0422V5.66H71.2902V0.799998ZM103.106 0.799998V26H98.354V11.384H93.89V26H89.102V11.384H84.674V26H79.886V11.384H77.906V7.604H79.886C79.886 4.484 81.242 2.216 83.954 0.799998H88.058V4.58H85.898C85.082 5.084 84.674 6.092 84.674 7.604H89.102C89.102 4.484 90.458 2.216 93.17 0.799998H96.878V4.58H95.114C94.298 5.084 93.89 6.092 93.89 7.604H98.354V0.799998H103.106ZM114.516 11.384H111.816C111.456 11.816 111.156 12.416 110.916 13.184C110.7 13.952 110.592 14.696 110.592 15.416H115.74C115.788 14.696 115.692 13.952 115.452 13.184C115.212 12.392 114.9 11.792 114.516 11.384ZM119.412 22.22V26H110.268C108.588 24.872 107.4 23.48 106.704 21.824C106.032 20.144 105.696 18.452 105.696 16.748C105.696 12.812 107.184 9.764 110.16 7.604H115.992C117.6 8.78 118.692 10.028 119.268 11.348C119.844 12.668 120.132 14 120.132 15.344C120.132 16.688 120.024 17.84 119.808 18.8H110.844C110.916 19.352 111.12 19.988 111.456 20.708C111.816 21.404 112.2 21.908 112.608 22.22H119.412Z" fill="white"></path>
</svg></svg></g></g><defs><clipPath id="SvgjsClipPath1169"><rect width="1000" height="1000" x="0" y="0" rx="400" ry="400"></rect></clipPath></defs></svg>