<svg width="219" height="219" viewBox="0 0 219 219" fill="none" xmlns="http://www.w3.org/2000/svg">
<path fill-rule="evenodd" clip-rule="evenodd" d="M100.01 0.405521C103.138 0.137024 106.303 0 109.5 0C112.697 0 115.862 0.137024 118.99 0.405521C175.022 5.21567 219 52.222 219 109.5C219 167.054 174.597 214.237 118.179 218.661C118.31 218.055 118.378 217.426 118.378 216.78C118.378 216.408 118.355 216.042 118.311 215.681C173.03 211.202 216.041 165.374 216.041 109.5C216.041 53.7716 173.251 8.03401 118.737 3.35414C115.693 3.09286 112.613 2.95946 109.5 2.95946C106.387 2.95946 103.307 3.09286 100.263 3.35414C45.7488 8.03401 2.95946 53.7716 2.95946 109.5C2.95946 165.374 45.9703 211.202 100.689 215.681C100.645 216.042 100.622 216.408 100.622 216.78C100.622 217.426 100.69 218.055 100.821 218.661C44.4032 214.237 0 167.054 0 109.5C0 52.222 43.9782 5.21567 100.01 0.405521Z" fill="url(#paint0_linear_1035_4)"/>
<circle cx="109.739" cy="109.591" r="95.8763" stroke="#8281FE" stroke-width="2"/>
<circle cx="109.354" cy="109.354" r="87.354" fill="#8281FE"/>
<defs>
<linearGradient id="paint0_linear_1035_4" x1="202.21" y1="47.0121" x2="7.7947" y2="148.937" gradientUnits="userSpaceOnUse">
<stop stop-color="#8281FE" stop-opacity="0.35"/>
<stop offset="1" stop-color="#8281FE"/>
</linearGradient>
</defs>
</svg>
